<?xml version="1.0" encoding="UTF-8"?>
<svg id="Calque_2" data-name="Calque 2" xmlns="http://www.w3.org/2000/svg" width="212.65" height="244.3" xmlns:xlink="http://www.w3.org/1999/xlink" viewBox="0 0 212.65 244.3">
  <defs>
    <style>
      .cls-1 {
        fill: url(#Dégradé_sans_nom_558);
      }

      .cls-2 {
        fill: url(#Dégradé_sans_nom_476);
      }

      .cls-3 {
        fill: url(#Dégradé_sans_nom_451);
      }

      .cls-4 {
        fill: url(#Dégradé_sans_nom_547);
      }
    </style>
    <linearGradient id="Dégradé_sans_nom_558" data-name="Dégradé sans nom 558" x1="171.18" y1="225.13" x2="47.3" y2="225.13" gradientTransform="translate(53.08)" gradientUnits="userSpaceOnUse">
      <stop offset="0" stop-color="#cdcccc"/>
      <stop offset="1" stop-color="#fff"/>
    </linearGradient>
    <linearGradient id="Dégradé_sans_nom_547" data-name="Dégradé sans nom 547" x1="-2764.68" y1="-2979.09" x2="-2640.8" y2="-2979.09" gradientTransform="translate(-2498.66 -2753.97) rotate(-180)" gradientUnits="userSpaceOnUse">
      <stop offset="0" stop-color="#cdcccc"/>
      <stop offset="1" stop-color="#fff"/>
    </linearGradient>
    <linearGradient id="Dégradé_sans_nom_476" data-name="Dégradé sans nom 476" x1="0" y1="153.75" x2="618.57" y2="153.75" gradientUnits="userSpaceOnUse">
      <stop offset="0" stop-color="#1e539d"/>
      <stop offset=".48" stop-color="#1f5ba0"/>
      <stop offset=".8" stop-color="#4588b9"/>
    </linearGradient>
    <linearGradient id="Dégradé_sans_nom_451" data-name="Dégradé sans nom 451" x1="-3114.68" y1="31.56" x2="-2982.44" y2="31.56" gradientTransform="translate(-2911.64 105.9) rotate(-180)" gradientUnits="userSpaceOnUse">
      <stop offset="0" stop-color="#588fb3"/>
      <stop offset="1" stop-color="#1e589e"/>
      <stop offset="1" stop-color="#1e519c"/>
    </linearGradient>
  </defs>
  <g id="Calque_1" data-name="Calque 1">
    <g>
      <path class="cls-1" d="M147.31,205.99h-16.33c-3.56,0-7.02,1.2-9.82,3.41l-18.77,25.46c-3.92,3.1-1.73,9.4,3.27,9.4h60.88c8.9,0,4.96-38.27-19.23-38.27Z"/>
      <path class="cls-4" d="M165.72,244.26h16.33c3.56,0,7.02-1.2,9.82-3.41l18.77-25.46c3.92-3.1,1.73-9.4-3.27-9.4h-60.88c-8.9,0-4.96,38.27,19.23,38.27Z"/>
      <g>
        <path class="cls-2" d="M196.87,95.38c-.01-.67.01-1.34.08-1.99.07-.64.16-1.27.29-1.88.37-1.82.99-3.48,1.8-4.99l-16.68-21.09c-.28-.35-.59-.65-.92-.92-.11-.09-.23-.15-.34-.23-.23-.16-.47-.32-.72-.45-.14-.07-.29-.13-.44-.19-.24-.1-.48-.18-.73-.25-.16-.04-.32-.07-.48-.1-.25-.04-.5-.07-.75-.08-.18,0-.36-.02-.54-.01-.14,0-.27.02-.41.03-.22.03-.45.07-.67.12-.13.03-.26.06-.39.1-.23.07-.46.16-.69.27-.11.05-.22.09-.33.14-.33.17-.65.37-.95.6l-23.11,18.28c-.16.13-.32.26-.47.41L1.79,234.14c-2.17,2.12-2.39,5.54-.51,7.93.28.35.59.65.92.92.11.09.23.15.34.23.23.16.47.32.72.45.14.07.29.13.44.19.24.1.48.18.73.25.16.04.32.07.48.1.25.04.5.07.75.08.18,0,.36.02.54.01.14,0,.27-.02.41-.03.22-.03.45-.06.67-.12.13-.03.26-.06.39-.1.23-.07.46-.16.69-.27.11-.05.22-.09.32-.14.33-.17.65-.37.94-.6L198.01,101.44c-.23-.66-.43-1.34-.59-2.01-.33-1.35-.51-2.71-.54-4.05Z"/>
        <path class="cls-3" d="M198.51,101.76c5.63-5.09,6.07-13.79.97-19.42L134.58,10.58C128.48,3.85,119.82,0,110.73,0h-36.63c-2.86,0-4.37,3.38-2.46,5.51l93.65,104.46-19.94-22.24c17.97,38.69-10.19,60.95-10.19,60.95"/>
      </g>
    </g>
  </g>
</svg>