<?xml version="1.0" encoding="UTF-8"?>
<svg id="Calque_3" data-name="Calque 3" xmlns="http://www.w3.org/2000/svg" width="422.23" height="352.29" xmlns:xlink="http://www.w3.org/1999/xlink" viewBox="0 0 422.23 352.29">
  <defs>
    <style>
      .cls-1 {
        fill: url(#Dégradé_sans_nom_534);
      }

      .cls-2 {
        fill: url(#Dégradé_sans_nom_583);
      }

      .cls-3 {
        fill: #2e2d2c;
      }

      .cls-4 {
        fill: url(#Dégradé_sans_nom_558);
      }

      .cls-5 {
        fill: url(#Dégradé_sans_nom_522);
      }

      .cls-6 {
        fill: url(#Dégradé_sans_nom_547);
      }
    </style>
    <linearGradient id="Dégradé_sans_nom_583" data-name="Dégradé sans nom 583" x1="0" y1="30.61" x2="422.23" y2="30.61" gradientUnits="userSpaceOnUse">
      <stop offset="0" stop-color="#fff"/>
      <stop offset="1" stop-color="#cdcccc"/>
    </linearGradient>
    <linearGradient id="Dégradé_sans_nom_522" data-name="Dégradé sans nom 522" x1="85.41" y1="241.93" x2="703.98" y2="241.93" gradientUnits="userSpaceOnUse">
      <stop offset="0" stop-color="#fff"/>
      <stop offset=".26" stop-color="#cdcccc"/>
    </linearGradient>
    <linearGradient id="Dégradé_sans_nom_534" data-name="Dégradé sans nom 534" x1="481.37" y1="2033.88" x2="613.61" y2="2033.88" gradientTransform="translate(769.81 2196.4) rotate(-180)" gradientUnits="userSpaceOnUse">
      <stop offset="0" stop-color="#fff"/>
      <stop offset="1" stop-color="#cdcccc"/>
      <stop offset="1" stop-color="#cbcaca"/>
      <stop offset="1" stop-color="#ababab"/>
      <stop offset="1" stop-color="#919090"/>
      <stop offset="1" stop-color="#7b7b7b"/>
      <stop offset="1" stop-color="#6a6a6a"/>
      <stop offset="1" stop-color="#5e5e5e"/>
      <stop offset="1" stop-color="#575757"/>
      <stop offset="1" stop-color="#565656"/>
    </linearGradient>
    <linearGradient id="Dégradé_sans_nom_558" data-name="Dégradé sans nom 558" x1="254.96" y1="313.31" x2="131.08" y2="313.31" gradientTransform="translate(53.08)" gradientUnits="userSpaceOnUse">
      <stop offset="0" stop-color="#cdcccc"/>
      <stop offset="1" stop-color="#fff"/>
    </linearGradient>
    <linearGradient id="Dégradé_sans_nom_547" data-name="Dégradé sans nom 547" x1="833" y1="-976.77" x2="956.88" y2="-976.77" gradientTransform="translate(1182.79 -663.47) rotate(-180)" gradientUnits="userSpaceOnUse">
      <stop offset="0" stop-color="#cdcccc"/>
      <stop offset="1" stop-color="#fff"/>
    </linearGradient>
  </defs>
  <g id="Calque_1" data-name="Calque 1">
    <g>
      <g>
        <path class="cls-2" d="M420.67,10.23c-2.51-6.2-9.17-10.22-15.78-10.14C232.66-.06,191.46.09,19.22.02c-4.46-.19-9.05.95-12.62,3.7C2.35,6.96-.16,12.34,0,17.68c.06,14.49.08,28.98.05,43.47,6.38-.34,12.78-.23,19.18-.23,165.3,0,199.56-.1,364.85.03,12.7.2,25.43-.32,38.12.28.01-13.79-.06-27.59.02-41.38.04-3.26-.25-6.6-1.56-9.62ZM54.78,40.19c-3.35,3.16-8.34,4.09-12.75,3.16-4.8-1.24-9.03-5.06-10.2-9.95-1.06-3.21-.27-6.66.89-9.73,1.75-3.5,5.09-6.03,8.81-7.11,3.37-.99,7.26-.91,10.31,1,3.79,2.49,7.26,6.4,7.18,11.2.48,4.21-1.01,8.63-4.23,11.43ZM94.42,42.49c-4.12,1.89-9.21,1.72-13.06-.73-4.22-2.49-6.94-7.38-6.69-12.29,0-6.58,5.44-12.4,11.83-13.44,7.68-1.4,15.51,4.97,16.01,12.68.55,5.67-2.86,11.51-8.09,13.78ZM141.89,39.58c-4.23,4.59-11.71,5.58-17.06,2.43-3.28-1.87-5.46-5.25-6.52-8.81-2.08-6.69,2.32-14.4,8.89-16.52,4.66-1.64,10.22-.59,13.84,2.8,2.04,2.04,3.64,4.61,4.39,7.42,1.22,4.47-.44,9.37-3.54,12.68Z"/>
        <path class="cls-3" d="M.06,61.15c6.38-.34,12.78-.23,19.18-.23,165.3,0,199.56-.1,364.85.03,12.7.2,25.43-.32,38.12.28.04,91.41.03,182.83-.01,274.25-.04,6.7-4.31,13.23-10.67,15.53-3.87,1.63-8.1,1.24-12.18,1.24-170.86.01-210.68-.07-381.54,0-5.26.07-10.6-2.19-13.94-6.31-2.59-3.07-3.87-7.1-3.8-11.09,0-91.23-.02-182.46-.01-273.69Z"/>
      </g>
      <g>
        <path class="cls-5" d="M282.28,183.56c-.01-.67.01-1.34.08-1.99.07-.64.16-1.27.29-1.88.37-1.82.99-3.48,1.8-4.99l-16.68-21.09c-.28-.35-.59-.65-.92-.92-.11-.09-.23-.15-.34-.23-.23-.16-.47-.32-.72-.45-.14-.07-.29-.13-.44-.19-.24-.1-.48-.18-.73-.25-.16-.04-.32-.07-.48-.1-.25-.04-.5-.07-.75-.08-.18,0-.36-.02-.54-.01-.14,0-.27.02-.41.03-.22.03-.45.07-.67.12-.13.03-.26.06-.39.1-.23.07-.46.16-.69.27-.11.05-.22.09-.33.14-.33.17-.65.37-.95.6l-23.11,18.28c-.16.13-.32.26-.47.41l-148.66,150.99c-2.17,2.12-2.39,5.54-.51,7.93.28.35.59.65.92.92.11.09.23.15.34.23.23.16.47.32.72.45.14.07.29.13.44.19.24.1.48.18.73.25.16.04.32.07.48.1.25.04.5.07.75.08.18,0,.36.02.54.01.14,0,.27-.02.41-.03.22-.03.45-.06.67-.12.13-.03.26-.06.39-.1.23-.07.46-.16.69-.27.11-.05.22-.09.32-.14.33-.17.65-.37.94-.6l188.39-141.6c-.23-.66-.43-1.34-.59-2.01-.33-1.35-.51-2.71-.54-4.05Z"/>
        <path class="cls-1" d="M283.92,189.94c5.63-5.09,6.07-13.79.97-19.42l-64.9-71.75c-6.1-6.74-14.76-10.58-23.85-10.58h-36.63c-2.86,0-4.37,3.38-2.46,5.51l93.65,104.46-19.94-22.24c17.97,38.69-10.19,60.95-10.19,60.95"/>
        <path class="cls-4" d="M231.09,294.17h-16.33c-3.56,0-7.02,1.2-9.82,3.41l-18.77,25.46c-3.92,3.1-1.73,9.4,3.27,9.4h60.88c8.9,0,4.96-38.27-19.23-38.27Z"/>
        <path class="cls-6" d="M249.5,332.44h16.33c3.56,0,7.02-1.2,9.82-3.41l18.77-25.46c3.92-3.1,1.73-9.4-3.27-9.4h-60.88c-8.9,0-4.96,38.27,19.23,38.27Z"/>
      </g>
    </g>
  </g>
</svg>